<svg width="149" height="149" viewBox="0 0 149 149" fill="none" xmlns="http://www.w3.org/2000/svg">
<g clip-path="url(#clip0_22_15)">
<rect width="149" height="149" rx="65" fill="url(#paint0_linear_22_15)"/>
<g filter="url(#filter0_f_22_15)">
<circle cx="121" cy="120" r="42" fill="white"/>
</g>
<g filter="url(#filter1_f_22_15)">
<circle cx="17.5" cy="20.5" r="34.5" fill="white"/>
</g>
<circle cx="74.5" cy="93.5" r="82.5" fill="black" fill-opacity="0.13"/>
<circle cx="74" cy="105" r="71" fill="black" fill-opacity="0.16"/>
<circle cx="74" cy="117" r="59" fill="black" fill-opacity="0.08"/>
<circle cx="73.5" cy="133.5" r="42.5" fill="black" fill-opacity="0.11"/>
<circle cx="73.5" cy="146.5" r="29.5" fill="black" fill-opacity="0.11"/>
<g filter="url(#filter2_f_22_15)">
<circle cx="74.5" cy="74.5" r="29.5" fill="white" fill-opacity="0.73"/>
</g>
<g filter="url(#filter3_f_22_15)">
<circle cx="74.5" cy="100.5" r="19.5" fill="white" fill-opacity="0.73"/>
</g>
<path fill-rule="evenodd" clip-rule="evenodd" d="M46.8841 28.0258C42.8326 32.5349 39.8875 41.103 41.0084 45.1148C41.5309 46.9858 42.3499 49.9536 42.8308 51.7062C43.5341 54.275 42.4439 54.96 37.2262 55.2333C30.631 55.5776 25.0373 59.3288 21.6746 65.6616C19.0621 70.5806 24.2075 74.0239 34.1673 74.0239C41.2977 74.0239 41.9576 74.4138 41.9576 78.6368C41.9576 81.1746 43.1779 86.1938 44.6694 89.7902C46.161 93.3883 47.3813 98.6899 47.3813 101.574C47.3813 108.701 59.3569 120.756 68.0711 122.405C77.6241 124.21 86.4738 121.884 93.4108 115.746C99.122 110.692 105.016 98.7008 102.857 96.5256C102.345 96.01 103.078 92.8126 104.484 89.4203C105.891 86.0262 107.042 81.1746 107.042 78.6368C107.042 74.4138 107.702 74.0239 114.833 74.0239C124.793 74.0239 129.938 70.5806 127.325 65.6616C123.972 59.3434 118.374 55.5776 111.832 55.2333C105.911 54.9218 105.506 54.5392 106.639 50.3398C108.693 42.7336 107.737 35.7486 103.94 30.6201C98.4675 23.2252 95.1428 23.4621 94.9222 31.2632C94.6438 41.1796 90.4585 44.8251 81.6431 42.8302C77.4831 41.8883 71.5169 41.8883 67.3569 42.8302C58.5578 44.8214 54.3562 41.1814 54.0796 31.327C53.8789 24.2309 51.3388 23.0649 46.8841 28.0258ZM54.3761 43.6755C55.9345 45.5684 55.5278 46.9457 52.6351 49.5838C48.9361 52.9578 48.8132 52.956 46.3146 49.5127C42.9067 44.816 43.1002 39.3559 46.8642 33.9395L49.963 29.4796L51.1544 35.3442C51.8089 38.5688 53.2588 42.3182 54.3761 43.6755ZM105.235 41.9957C105.235 44.1984 104.088 47.5797 102.685 49.5127C100.198 52.9414 100.049 52.9432 96.4155 49.6293C93.0546 46.5649 92.9516 45.8654 95.3489 42.4166C96.8078 40.316 98.03 36.5265 98.0625 33.9924L98.124 29.3885L101.678 33.6899C103.635 36.0547 105.235 39.7931 105.235 41.9957ZM91.5179 49.9208C99.4239 54.4718 105.916 68.2104 104.41 77.1994C102.497 88.6005 101.331 89.3803 93.3113 84.6052C83.3787 78.6896 65.6213 78.6896 55.6887 84.6052C47.6923 89.3675 46.5008 88.5878 44.6206 77.3724C43.3858 70.0085 47.9942 56.9039 53.398 52.4076C62.7269 44.6484 80.3594 43.497 91.5179 49.9208ZM56.4841 59.3288C54.0633 63.8871 54.0923 64.1294 57.4532 67.5181C63.8821 73.9947 73.3212 67.4434 69.0763 59.4491C66.5813 54.7505 58.9556 54.6776 56.4841 59.3288ZM79.9237 59.4491C75.6788 67.4434 85.1179 73.9947 91.5468 67.5181C94.9077 64.1294 94.9367 63.8871 92.5159 59.3288C90.0444 54.6776 82.4187 54.7505 79.9237 59.4491ZM43.7655 59.3307C43.7655 60.2671 42.9718 63.1365 42.0028 65.7071C40.5185 69.6387 39.1029 70.3802 33.0699 70.3802C24.9975 70.3802 23.233 68.9172 26.2992 64.7616C30.6111 58.9171 43.7655 54.827 43.7655 59.3307ZM116.653 59.746C121.361 62.2729 125.138 67.0589 123.95 68.9938C123.484 69.7571 119.873 70.3802 115.93 70.3802C109.897 70.3802 108.482 69.6387 106.997 65.7071C106.028 63.1365 105.235 60.2671 105.235 59.3307C105.235 56.9586 111.911 57.2009 116.653 59.746ZM66.8164 62.6355C67.8053 65.6288 62.1411 67.764 59.7113 65.3154C58.6717 64.2679 58.3951 62.4733 59.0966 61.3292C60.6948 58.724 65.8112 59.5912 66.8164 62.6355ZM90.3192 62.6355C91.3082 65.6288 85.644 67.764 83.2141 65.3154C82.1746 64.2679 81.898 62.4733 82.5995 61.3292C84.1976 58.724 89.314 59.5912 90.3192 62.6355ZM87.9762 85.7129C95.7376 88.9813 100.348 95.826 98.8472 101.851C98.2271 104.341 94.9819 109.053 91.6354 112.321C79.3723 124.3 60.5682 120.683 52.0023 104.702C48.6233 98.3966 48.6107 97.9575 51.6877 93.2262C57.7678 83.8764 75.093 80.2892 87.9762 85.7129ZM63.6525 99.9434C63.6525 103.265 66.8579 106.017 68.6369 104.223C69.257 103.598 68.3893 101.701 66.7079 100.007C63.8912 97.1668 63.6525 97.1614 63.6525 99.9434ZM81.7317 101.352C80.4878 103.695 80.4408 104.995 81.6051 104.995C82.5995 104.995 84.2826 103.356 85.3475 101.352C86.5913 99.0087 86.6383 97.7079 85.474 97.7079C84.4797 97.7079 82.7965 99.3476 81.7317 101.352Z" fill="black"/>
</g>
<defs>
<filter id="filter0_f_22_15" x="25" y="24" width="192" height="192" filterUnits="userSpaceOnUse" color-interpolation-filters="sRGB">
<feFlood flood-opacity="0" result="BackgroundImageFix"/>
<feBlend mode="normal" in="SourceGraphic" in2="BackgroundImageFix" result="shape"/>
<feGaussianBlur stdDeviation="27" result="effect1_foregroundBlur_22_15"/>
</filter>
<filter id="filter1_f_22_15" x="-71" y="-68" width="177" height="177" filterUnits="userSpaceOnUse" color-interpolation-filters="sRGB">
<feFlood flood-opacity="0" result="BackgroundImageFix"/>
<feBlend mode="normal" in="SourceGraphic" in2="BackgroundImageFix" result="shape"/>
<feGaussianBlur stdDeviation="27" result="effect1_foregroundBlur_22_15"/>
</filter>
<filter id="filter2_f_22_15" x="21" y="21" width="107" height="107" filterUnits="userSpaceOnUse" color-interpolation-filters="sRGB">
<feFlood flood-opacity="0" result="BackgroundImageFix"/>
<feBlend mode="normal" in="SourceGraphic" in2="BackgroundImageFix" result="shape"/>
<feGaussianBlur stdDeviation="12" result="effect1_foregroundBlur_22_15"/>
</filter>
<filter id="filter3_f_22_15" x="31" y="57" width="87" height="87" filterUnits="userSpaceOnUse" color-interpolation-filters="sRGB">
<feFlood flood-opacity="0" result="BackgroundImageFix"/>
<feBlend mode="normal" in="SourceGraphic" in2="BackgroundImageFix" result="shape"/>
<feGaussianBlur stdDeviation="12" result="effect1_foregroundBlur_22_15"/>
</filter>
<linearGradient id="paint0_linear_22_15" x1="7" y1="8.5" x2="142.5" y2="146.5" gradientUnits="userSpaceOnUse">
<stop stop-color="#FF9F2E"/>
<stop offset="1" stop-color="#FF2D2D"/>
</linearGradient>
<clipPath id="clip0_22_15">
<rect width="149" height="149" rx="74.5" fill="white"/>
</clipPath>
</defs>
</svg>
